<svg xmlns="http://www.w3.org/2000/svg" viewBox="0 0 1169.6 1445.13"><path d="M604.81,1385.86c-72.24,51.55-150.77,67.59-235.48,51.78-71.59-13.36-128.13-52.86-172.13-109.23-74.87-95.92-84.18-244.23-1.1-351.55,48.91-63.17,112-102.09,191.33-113.71s151.09,7.18,217.33,55V909c0-109-.33-218-.06-327.05.12-49.17-18.13-89.92-53.21-123.79-33.14-32-72.51-49.25-118.6-50.52-53-1.46-96,19.77-131.77,57.89-32.46,34.55-46.76,76-47,122.55-.44,91.39-.2,182.79-.24,274.18a58.57,58.57,0,0,0,0,6.76c.54,4.71-1.52,5.83-6,5.81-34.83-.16-69.66-.08-104.5-.11-1.79,0-3.59-.23-5.73-.39V0h116V349.37c3.21-2,5-3.11,6.77-4.32,60.28-42,127.16-58.84,200.1-52.3,70.24,6.3,128.67,37.43,177.95,86.56C689.32,429.91,715.33,492,720.61,563c.85,11.42,1,22.91,1,34.37q.12,122.64,0,245.29-.23,296-.51,592c0,2.42,0,4.84,0,7.72H604.81Zm0-234.91c4.33-87.15-77.2-175.76-177.64-175-93,.66-172.5,81.86-173.4,176.35-.88,92.91,81.76,175.52,178.82,175.23C527,1327.21,607.89,1241.07,604.76,1151Z" transform="translate(-137.36)"/><path d="M1306.76,1443.38H1190.23v-55.82c-90.12,60.58-185.86,75.17-286.27,35-67.23-26.86-118.65-74.19-150.24-140.15-39.93-83.36-43.39-168.87-3.37-252.73C789.82,947,854.81,892.21,946.44,868.86c-13.14-4.33-24.58-7.34-35.43-11.8C821.7,820.38,761.78,756,734.6,663.43,710,579.71,722.83,499.62,770,426.81c46.35-71.51,112-117.22,197.26-130.67,98.15-15.48,183.8,12.05,254.27,81.67,49,48.38,78.19,107.82,84.36,177.15,1.77,19.9.71,40.06.92,60.1,0,3.28-.07,6.55-.07,9.83v818.49Zm-291.34-684c48.27-.12,89.75-17.7,124-52,39.11-39.17,55.14-86.9,51.29-141.25-5.14-72.67-72.28-157.5-178.13-158C921.42,407.74,840.22,490.82,840,583.5,839.83,675,916,759.46,1015.42,759.39Zm-176,393.89c-1.85,92.8,81.56,175.46,178.71,175.1,94.41-.34,172.11-86.43,172.92-176,.8-87.64-78.06-176.34-178.57-175.55C919.4,977.54,839.3,1058.68,839.4,1153.28ZM1189.84,818c-31.94,23.41-66.13,40.12-103.77,50.28,37.6,10.27,71.6,27.41,103.77,50.31Z" transform="translate(-137.36)"/></svg>