<svg width="1232" height="632" viewBox="0 0 1232 632" fill="none" xmlns="http://www.w3.org/2000/svg">
<rect x="7.5" y="7.5" width="1217" height="616.89" rx="42.5" stroke="white" stroke-width="15"/>
<circle cx="237.147" cy="253.174" r="166.712" stroke="white" stroke-width="12"/>
<circle cx="994.852" cy="253.174" r="166.712" stroke="white" stroke-width="12"/>
<ellipse cx="124" cy="531.5" rx="48" ry="47.5" stroke="white" stroke-width="7"/>
<ellipse cx="237" cy="531.5" rx="48" ry="47.5" stroke="white" stroke-width="7"/>
<path d="M228.165 528.869H223.903C223.847 528.432 223.73 528.037 223.554 527.685C223.378 527.332 223.145 527.031 222.855 526.781C222.565 526.531 222.222 526.341 221.824 526.21C221.432 526.074 220.997 526.006 220.52 526.006C219.673 526.006 218.943 526.213 218.33 526.628C217.722 527.043 217.253 527.642 216.923 528.426C216.599 529.21 216.438 530.159 216.438 531.273C216.438 532.432 216.602 533.403 216.932 534.188C217.267 534.966 217.736 535.554 218.338 535.952C218.946 536.344 219.665 536.54 220.494 536.54C220.96 536.54 221.384 536.48 221.764 536.361C222.151 536.241 222.489 536.068 222.778 535.841C223.074 535.608 223.315 535.327 223.503 534.997C223.696 534.662 223.83 534.284 223.903 533.864L228.165 533.889C228.091 534.662 227.866 535.423 227.491 536.173C227.122 536.923 226.614 537.608 225.966 538.227C225.318 538.841 224.528 539.33 223.597 539.693C222.67 540.057 221.608 540.239 220.409 540.239C218.83 540.239 217.415 539.892 216.165 539.199C214.92 538.5 213.938 537.483 213.216 536.148C212.494 534.812 212.134 533.187 212.134 531.273C212.134 529.352 212.5 527.724 213.233 526.389C213.966 525.054 214.957 524.04 216.207 523.347C217.457 522.653 218.858 522.307 220.409 522.307C221.466 522.307 222.443 522.455 223.341 522.75C224.239 523.04 225.028 523.466 225.71 524.028C226.392 524.585 226.946 525.27 227.372 526.082C227.798 526.895 228.062 527.824 228.165 528.869ZM241.138 522.545H245.349V533.804C245.349 535.105 245.039 536.239 244.42 537.205C243.8 538.165 242.937 538.909 241.829 539.438C240.721 539.96 239.434 540.222 237.968 540.222C236.485 540.222 235.19 539.96 234.082 539.438C232.974 538.909 232.113 538.165 231.499 537.205C230.886 536.239 230.579 535.105 230.579 533.804V522.545H234.798V533.438C234.798 534.04 234.928 534.577 235.19 535.048C235.457 535.52 235.829 535.889 236.306 536.156C236.783 536.423 237.337 536.557 237.968 536.557C238.599 536.557 239.15 536.423 239.621 536.156C240.099 535.889 240.471 535.52 240.738 535.048C241.005 534.577 241.138 534.04 241.138 533.438V522.545ZM247.993 540V522.545H260.163V525.972H252.212V529.551H259.541V532.986H252.212V536.574H260.163V540H247.993Z" fill="#FFA033"/>
<ellipse cx="350" cy="531.5" rx="48" ry="47.5" stroke="white" stroke-width="7"/>
<path d="M345.42 515.944C347.261 513.352 351.864 513.352 353.705 515.944L366.477 533.926C368.318 536.518 366.016 539.758 362.334 539.758H336.79C333.108 539.758 330.807 536.518 332.648 533.926L345.42 515.944Z" fill="#C7C7C7"/>
<rect x="332" y="550.686" width="7.80545" height="35.1245" rx="3" transform="rotate(-90 332 550.686)" fill="#C7C7C7"/>
<path d="M879.806 528.68C882.506 530.239 882.506 534.136 879.806 535.695L861.075 546.51C858.375 548.068 855 546.12 855 543.002V521.373C855 518.255 858.375 516.307 861.075 517.866L879.806 528.68Z" fill="#ABF255"/>
<rect x="887.4" y="517" width="8.1" height="30.375" rx="3" fill="#ABF255"/>
<rect x="900.9" y="517" width="8.1" height="30.375" rx="3" fill="#ABF255"/>
<ellipse cx="882" cy="531.5" rx="48" ry="47.5" stroke="white" stroke-width="7"/>
<ellipse cx="995" cy="531.5" rx="48" ry="47.5" stroke="white" stroke-width="7"/>
<path d="M986.165 528.869H981.903C981.847 528.432 981.73 528.037 981.554 527.685C981.378 527.332 981.145 527.031 980.855 526.781C980.565 526.531 980.222 526.341 979.824 526.21C979.432 526.074 978.997 526.006 978.52 526.006C977.673 526.006 976.943 526.213 976.33 526.628C975.722 527.043 975.253 527.642 974.923 528.426C974.599 529.21 974.438 530.159 974.438 531.273C974.438 532.432 974.602 533.403 974.932 534.188C975.267 534.966 975.736 535.554 976.338 535.952C976.946 536.344 977.665 536.54 978.494 536.54C978.96 536.54 979.384 536.48 979.764 536.361C980.151 536.241 980.489 536.068 980.778 535.841C981.074 535.608 981.315 535.327 981.503 534.997C981.696 534.662 981.83 534.284 981.903 533.864L986.165 533.889C986.091 534.662 985.866 535.423 985.491 536.173C985.122 536.923 984.614 537.608 983.966 538.227C983.318 538.841 982.528 539.33 981.597 539.693C980.67 540.057 979.608 540.239 978.409 540.239C976.83 540.239 975.415 539.892 974.165 539.199C972.92 538.5 971.938 537.483 971.216 536.148C970.494 534.812 970.134 533.187 970.134 531.273C970.134 529.352 970.5 527.724 971.233 526.389C971.966 525.054 972.957 524.04 974.207 523.347C975.457 522.653 976.858 522.307 978.409 522.307C979.466 522.307 980.443 522.455 981.341 522.75C982.239 523.04 983.028 523.466 983.71 524.028C984.392 524.585 984.946 525.27 985.372 526.082C985.798 526.895 986.062 527.824 986.165 528.869ZM999.138 522.545H1003.35V533.804C1003.35 535.105 1003.04 536.239 1002.42 537.205C1001.8 538.165 1000.94 538.909 999.829 539.438C998.721 539.96 997.434 540.222 995.968 540.222C994.485 540.222 993.19 539.96 992.082 539.438C990.974 538.909 990.113 538.165 989.499 537.205C988.886 536.239 988.579 535.105 988.579 533.804V522.545H992.798V533.438C992.798 534.04 992.928 534.577 993.19 535.048C993.457 535.52 993.829 535.889 994.306 536.156C994.783 536.423 995.337 536.557 995.968 536.557C996.599 536.557 997.15 536.423 997.621 536.156C998.099 535.889 998.471 535.52 998.738 535.048C999.005 534.577 999.138 534.04 999.138 533.438V522.545ZM1005.99 540V522.545H1018.16V525.972H1010.21V529.551H1017.54V532.986H1010.21V536.574H1018.16V540H1005.99Z" fill="#FFA033"/>
<ellipse cx="1108" cy="531.5" rx="48" ry="47.5" stroke="white" stroke-width="7"/>
<path d="M1103.42 515.944C1105.26 513.352 1109.86 513.352 1111.7 515.944L1124.48 533.926C1126.32 536.518 1124.02 539.758 1120.33 539.758H1094.79C1091.11 539.758 1088.81 536.518 1090.65 533.926L1103.42 515.944Z" fill="#C7C7C7"/>
<rect x="1090" y="550.686" width="7.80545" height="35.1245" rx="3" transform="rotate(-90 1090 550.686)" fill="#C7C7C7"/>
<rect x="467.479" y="12.5" width="297.041" height="606.89" stroke="white" stroke-width="5"/>
<rect x="565" y="572.359" width="101.502" height="12.4652" rx="3" fill="#EEEEEE"/>
<g filter="url(#filter0_dd_18_84)">
<rect x="609.751" y="561" width="12.4652" height="35.6148" rx="3" fill="#585858"/>
</g>
<rect x="670.04" y="388" width="101.502" height="12.4652" rx="3" transform="rotate(90 670.04 388)" fill="#EEEEEE"/>
<g filter="url(#filter1_dd_18_84)">
<rect x="681.615" y="473" width="12.4652" height="35.6148" rx="3" transform="rotate(90 681.615 473)" fill="#585858"/>
</g>
<defs>
<filter id="filter0_dd_18_84" x="606.751" y="561" width="18.4651" height="42.6148" filterUnits="userSpaceOnUse" color-interpolation-filters="sRGB">
<feFlood flood-opacity="0" result="BackgroundImageFix"/>
<feColorMatrix in="SourceAlpha" type="matrix" values="0 0 0 0 0 0 0 0 0 0 0 0 0 0 0 0 0 0 127 0" result="hardAlpha"/>
<feMorphology radius="1" operator="erode" in="SourceAlpha" result="effect1_dropShadow_18_84"/>
<feOffset dy="4"/>
<feGaussianBlur stdDeviation="2"/>
<feComposite in2="hardAlpha" operator="out"/>
<feColorMatrix type="matrix" values="0 0 0 0 0.0470588 0 0 0 0 0.0470588 0 0 0 0 0.0509804 0 0 0 0.05 0"/>
<feBlend mode="normal" in2="BackgroundImageFix" result="effect1_dropShadow_18_84"/>
<feColorMatrix in="SourceAlpha" type="matrix" values="0 0 0 0 0 0 0 0 0 0 0 0 0 0 0 0 0 0 127 0" result="hardAlpha"/>
<feMorphology radius="1" operator="erode" in="SourceAlpha" result="effect2_dropShadow_18_84"/>
<feOffset dy="4"/>
<feGaussianBlur stdDeviation="2"/>
<feComposite in2="hardAlpha" operator="out"/>
<feColorMatrix type="matrix" values="0 0 0 0 0.0470588 0 0 0 0 0.0470588 0 0 0 0 0.0509804 0 0 0 0.1 0"/>
<feBlend mode="normal" in2="effect1_dropShadow_18_84" result="effect2_dropShadow_18_84"/>
<feBlend mode="normal" in="SourceGraphic" in2="effect2_dropShadow_18_84" result="shape"/>
</filter>
<filter id="filter1_dd_18_84" x="643" y="473" width="41.6147" height="19.4652" filterUnits="userSpaceOnUse" color-interpolation-filters="sRGB">
<feFlood flood-opacity="0" result="BackgroundImageFix"/>
<feColorMatrix in="SourceAlpha" type="matrix" values="0 0 0 0 0 0 0 0 0 0 0 0 0 0 0 0 0 0 127 0" result="hardAlpha"/>
<feMorphology radius="1" operator="erode" in="SourceAlpha" result="effect1_dropShadow_18_84"/>
<feOffset dy="4"/>
<feGaussianBlur stdDeviation="2"/>
<feComposite in2="hardAlpha" operator="out"/>
<feColorMatrix type="matrix" values="0 0 0 0 0.0470588 0 0 0 0 0.0470588 0 0 0 0 0.0509804 0 0 0 0.05 0"/>
<feBlend mode="normal" in2="BackgroundImageFix" result="effect1_dropShadow_18_84"/>
<feColorMatrix in="SourceAlpha" type="matrix" values="0 0 0 0 0 0 0 0 0 0 0 0 0 0 0 0 0 0 127 0" result="hardAlpha"/>
<feMorphology radius="1" operator="erode" in="SourceAlpha" result="effect2_dropShadow_18_84"/>
<feOffset dy="4"/>
<feGaussianBlur stdDeviation="2"/>
<feComposite in2="hardAlpha" operator="out"/>
<feColorMatrix type="matrix" values="0 0 0 0 0.0470588 0 0 0 0 0.0470588 0 0 0 0 0.0509804 0 0 0 0.1 0"/>
<feBlend mode="normal" in2="effect1_dropShadow_18_84" result="effect2_dropShadow_18_84"/>
<feBlend mode="normal" in="SourceGraphic" in2="effect2_dropShadow_18_84" result="shape"/>
</filter>
</defs>
</svg>
